<svg width="393" height="132" viewBox="0 0 393 132" fill="none" xmlns="http://www.w3.org/2000/svg">
<path fill-rule="evenodd" clip-rule="evenodd" d="M100.115 77.6924C101.338 74.0173 102 70.086 102 66C102 45.5655 85.4345 29 65 29C60.7965 29 56.7567 29.701 52.9912 30.9924C57.4331 32.1514 61.2422 34.2873 64.4 37.4C67.8 40.7 70.2 45.1 71.6 50.2C69 45.9 64.9 41 58.8 39C55.1086 37.7695 51.1356 37.7903 46.951 39.045C46.8292 40.3372 46.4839 41.5644 45.9541 42.6875C50.2577 40.9982 54.2489 40.7265 57.9 41.9C66.5 44.6 71.6001 54.1 72.9001 56.9C72.9001 57.15 72.925 57.375 72.9501 57.6C72.9751 57.825 73 58.05 73 58.3V58.4C78.9001 58.3 84.6001 59.9 89.3 63.2C93.1051 65.8898 97.3405 70.3441 100.115 77.6924ZM43.4673 46.0772C47.199 45.9429 50.9143 46.5844 53.3 48.9C56.0899 51.6292 57.0038 56.4182 57.1572 60.4562C55.8017 62.285 55 64.5489 55 67C55 73.0751 59.9249 78 66 78C69.1922 78 72.0668 76.6403 74.0762 74.4684C76.0706 74.5493 78.1682 75.0692 80.0999 76.4C83.3793 78.6813 85.5914 82.9955 86.5912 88.9079C84.9745 90.8229 84 93.2976 84 96C84 96.5708 84.0435 97.1315 84.1273 97.6789C78.5458 101.056 71.9999 103 65 103C44.5655 103 28 86.4345 28 66C28 59.6335 29.608 53.6426 32.4399 48.4111C33.5565 48.7929 34.7541 49 36 49C38.8824 49 41.5059 47.8914 43.4673 46.0772ZM26.2527 43.1028C22.2802 49.8107 20 57.6391 20 66C20 90.8528 40.1472 111 65 111C73.463 111 81.3803 108.664 88.1422 104.601C90.0228 106.103 92.4066 107 95 107C101.075 107 106 102.075 106 96C106 93.4066 105.103 91.0228 103.601 89.1422C107.664 82.3803 110 74.463 110 66C110 41.1472 89.8528 21 65 21C56.0746 21 47.756 23.5985 40.7597 28.0803C39.3193 27.3879 37.705 27 36 27C29.9249 27 25 31.9249 25 38C25 39.8417 25.4526 41.5777 26.2527 43.1028ZM98.3205 82.1049C97.8192 83.1402 97.2711 84.1486 96.6789 85.1273L96.641 85.1216C93.2831 78.8872 88.3158 72.2399 81.8999 70.5C80.1543 70.0172 78.3536 69.9344 76.5131 70.2464C76.8226 69.2431 76.9923 68.1785 76.9997 67.0754C78.9266 66.8778 80.8289 67.0516 82.7001 67.6C89.4618 69.5138 94.6773 75.8629 98.3205 82.1049ZM66 74C69.866 74 73 70.866 73 67C73 63.134 69.866 60 66 60C62.134 60 59 63.134 59 67C59 70.866 62.134 74 66 74ZM95 103C98.866 103 102 99.866 102 96C102 92.134 98.866 89 95 89C91.134 89 88 92.134 88 96C88 99.866 91.134 103 95 103ZM43 38C43 41.866 39.866 45 36 45C32.134 45 29 41.866 29 38C29 34.134 32.134 31 36 31C39.866 31 43 34.134 43 38Z" fill="black"/>
<path fill-rule="evenodd" clip-rule="evenodd" d="M124.1 97.4H149.8V87.9H145.8L141.8 83.9V81.7L150.3 76.7L159.7 87.7V97.5H185V87.8H173.2L159.2 71.6L178.5 60.5H182.9V50.8H156.7V60.5H161.4V62.1L141.9 72.9V30H123V39.6H128.1L132.1 43.6V83.7L128.1 87.7H124.1V97.4ZM242.2 83.7999V50.7999V50.7H223.2V60.4H228.3L232.3 64.4V78.7999C228.6 85.7 223.7 89.0999 216.3 89.0999C209.1 89.0999 207.3 84.5999 207.3 77.0999V50.7H188.4V60.4H193.5L197.5 64.4V81.4C197.5 92.7 205.8 99 216 99C223.8 99 229.3 94.3999 232.4 90.7999V97.5H251.3V87.7999H246.2L242.2 83.7999ZM303 30V86L304.8 87.8H310.1V97.5H293.2V90.8C290.3 94 284.7 99 276 99C262.1 99 251.9 88 251.9 74.1C251.9 60.2 262.1 49.2 276 49.2C284.7 49.2 290.3 54.1 293.1 57.4V41.4L291.3 39.6H281.6V30H303ZM293.1 69C289.2 63.2 284.9 59 277 59C268.2 59 263 65.5 263 74.1C263 82.7 268.2 89.2 277 89.2C284.8 89.2 289.2 85 293.1 79.2V69ZM364.1 83.7999V50.7999V50.7H345.1V60.4H350.2L354.2 64.4V78.7999C350.5 85.7 345.6 89.0999 338.2 89.0999C331 89.0999 329.2 84.5999 329.2 77.0999V50.7H310.3V60.4H315.4L319.4 64.4V81.4C319.4 92.7 327.7 99 337.9 99C345.7 99 351.2 94.3999 354.3 90.7999V97.5H373.2V87.7999H368.1L364.1 83.7999Z" fill="black"/>
</svg>
